<?xml version="1.0" standalone="no"?><!DOCTYPE svg PUBLIC "-//W3C//DTD SVG 1.1//EN" "http://www.w3.org/Graphics/SVG/1.1/DTD/svg11.dtd"><svg t="1635046382832" class="icon" viewBox="0 0 1243 1024" version="1.1" xmlns="http://www.w3.org/2000/svg" p-id="3773" xmlns:xlink="http://www.w3.org/1999/xlink" width="242.7734375" height="200"><defs><style type="text/css"></style></defs><path d="M962.194286 728.502857l-91.428572-128a36.571429 36.571429 0 0 0-59.245714 0l-61.44 85.942857-134.948571-192.731428a36.571429 36.571429 0 0 0-59.977143 0l-164.571429 235.154285a36.571429 36.571429 0 0 0-2.56 36.571429 36.571429 36.571429 0 0 0 32.548572 19.748571h512a36.571429 36.571429 0 0 0 29.622857-57.782857z" fill="#FFC824" p-id="3774"></path><path d="M962.194286 728.502857l-182.857143-256a36.571429 36.571429 0 0 0-59.245714 0L658.285714 556.982857l-135.68-193.828571a36.571429 36.571429 0 0 0-59.977143 0l-256 365.714285a36.571429 36.571429 0 0 0 59.977143 41.691429l226.011429-322.925714 226.011428 322.925714a36.571429 36.571429 0 0 0 29.988572 15.725714 36.571429 36.571429 0 0 0 29.988571-57.417143l-75.702857-109.714285 45.714286-64 153.234286 214.308571a36.571429 36.571429 0 0 0 29.622857 15.36 36.571429 36.571429 0 0 0 21.211428-6.948571 36.571429 36.571429 0 0 0 9.508572-49.371429zM374.857143 182.857143h-36.571429a36.571429 36.571429 0 0 1 0-73.142857h36.571429a36.571429 36.571429 0 0 1 0 73.142857z" fill="#6B400D" p-id="3775"></path><path d="M1133.714286 1024H109.714286a109.714286 109.714286 0 0 1-109.714286-109.714286V219.428571a109.714286 109.714286 0 0 1 109.714286-109.714285h82.285714a36.571429 36.571429 0 0 1 0 73.142857H109.714286a36.571429 36.571429 0 0 0-36.571429 36.571428v694.857143a36.571429 36.571429 0 0 0 36.571429 36.571429h1024a36.571429 36.571429 0 0 0 36.571428-36.571429V219.428571a36.571429 36.571429 0 0 0-36.571428-36.571428H557.714286a36.571429 36.571429 0 0 1 0-73.142857H1133.714286a109.714286 109.714286 0 0 1 109.714285 109.714285v694.857143a109.714286 109.714286 0 0 1-109.714285 109.714286z" fill="#6B400D" p-id="3776"></path><path d="M914.285714 182.857143m-146.285714 0a146.285714 146.285714 0 1 0 292.571429 0 146.285714 146.285714 0 1 0-292.571429 0Z" fill="#FFC824" p-id="3777"></path><path d="M914.285714 0a182.857143 182.857143 0 1 0 182.857143 182.857143 182.857143 182.857143 0 0 0-182.857143-182.857143z m0 292.571429a109.714286 109.714286 0 1 1 109.714286-109.714286 109.714286 109.714286 0 0 1-109.714286 109.714286z" fill="#6B400D" p-id="3778"></path></svg>